<?xml version="1.0" encoding="UTF-8" standalone="no"?>
<svg width="188px" height="140px" viewBox="0 0 188 140" version="1.1" xmlns="http://www.w3.org/2000/svg" xmlns:xlink="http://www.w3.org/1999/xlink" xmlns:sketch="http://www.bohemiancoding.com/sketch/ns">
    <!-- Generator: Sketch 3.2 (9961) - http://www.bohemiancoding.com/sketch -->
    <title>Fill 186</title>
    <desc>Created with Sketch.</desc>
    <defs></defs>
    <g id="Page-1" stroke="none" stroke-width="1" fill="none" fill-rule="evenodd" sketch:type="MSPage">
        <path d="M176.25,116.666667 C176.25,117.850833 176.020875,118.970833 175.691875,120.038333 L123.375,64.1666667 L176.25,23.3333333 L176.25,116.666667 L176.25,116.666667 Z M20.8915,128.018333 L73.9075,71.925 L94,87.0041667 L113.223,71.8316667 L167.1085,128.018333 C166.268375,128.210833 21.731625,128.210833 20.8915,128.018333 L20.8915,128.018333 Z M11.75,116.666667 L11.75,23.3333333 L64.625,64.1666667 L12.308125,120.038333 C11.979125,118.970833 11.75,117.850833 11.75,116.666667 L11.75,116.666667 Z M170.375,11.6666667 L94,70 L17.625,11.6666667 L170.375,11.6666667 L170.375,11.6666667 Z M164.5,0 L23.5,0 C10.522125,0 0,10.4475 0,23.3333333 L0,116.666667 C0,129.5525 10.522125,140 23.5,140 L164.5,140 C177.477875,140 188,129.5525 188,116.666667 L188,23.3333333 C188,10.4475 177.477875,0 164.5,0 L164.5,0 Z" id="Fill-186" fill="#000000" sketch:type="MSShapeGroup"></path>
    </g>
</svg>