<?xml version="1.0" encoding="UTF-8" standalone="no"?>
<svg width="90px" height="90px" viewBox="0 0 90 90" version="1.1" xmlns="http://www.w3.org/2000/svg" xmlns:xlink="http://www.w3.org/1999/xlink" xmlns:sketch="http://www.bohemiancoding.com/sketch/ns">
    <!-- Generator: Sketch 3.2 (9961) - http://www.bohemiancoding.com/sketch -->
    <title>noun_69968_cc</title>
    <desc>Created with Sketch.</desc>
    <defs></defs>
    <g id="Page-1" stroke="none" stroke-width="1" fill="none" fill-rule="evenodd" sketch:type="MSPage">
        <g id="noun_69968_cc" sketch:type="MSLayerGroup" fill="#000000">
            <path d="M34,90 C15.252,90 0,74.748 0,56 C0,37.252 15.252,22 34,22 C52.752,22 68,37.252 68,56 C68,74.748 52.752,90 34,90 L34,90 Z M34,26 C17.456,26 4,39.456 4,56 C4,72.544 17.456,86 34,86 C50.544,86 64,72.544 64,56 C64,39.456 50.544,26 34,26 L34,26 Z" id="Shape" sketch:type="MSShapeGroup"></path>
            <path d="M56.628,35.376 C56.116,35.376 55.6,35.18 55.212,34.792 C54.432,34.012 54.432,32.74 55.212,31.964 L84.588,2.584 C85.364,1.808 86.636,1.808 87.416,2.584 C88.192,3.36 88.192,4.636 87.416,5.412 L58.04,34.792 C57.652,35.18 57.14,35.376 56.628,35.376 L56.628,35.376 Z" id="Shape" sketch:type="MSShapeGroup"></path>
            <path d="M88,34 C86.9,34 86,33.1 86,32 L86,4 L58,4 C56.9,4 56,3.1 56,2 C56,0.9 56.9,0 58,0 L88,0 C89.1,0 90,0.9 90,2 L90,32 C90,33.1 89.1,34 88,34 L88,34 Z" id="Shape" sketch:type="MSShapeGroup"></path>
        </g>
    </g>
</svg>