<?xml version="1.0" encoding="UTF-8" standalone="no"?>
<svg width="90px" height="90px" viewBox="0 0 90 90" version="1.1" xmlns="http://www.w3.org/2000/svg" xmlns:xlink="http://www.w3.org/1999/xlink" xmlns:sketch="http://www.bohemiancoding.com/sketch/ns">
    <!-- Generator: Sketch 3.2 (9961) - http://www.bohemiancoding.com/sketch -->
    <title>noun_69963_cc</title>
    <desc>Created with Sketch.</desc>
    <defs></defs>
    <g id="Page-1" stroke="none" stroke-width="1" fill="none" fill-rule="evenodd" sketch:type="MSPage">
        <g id="noun_69963_cc" sketch:type="MSLayerGroup" fill="#000000">
            <path d="M55.244,68.648 C36.496,68.648 21.244,53.396 21.244,34.648 C21.244,15.896 36.496,0.648 55.244,0.648 C73.996,0.648 89.244,15.9 89.244,34.648 C89.244,53.4 73.992,68.648 55.244,68.648 L55.244,68.648 Z M55.244,4.648 C38.7,4.648 25.244,18.104 25.244,34.648 C25.244,51.188 38.7,64.648 55.244,64.648 C71.788,64.648 85.244,51.188 85.244,34.648 C85.244,18.104 71.784,4.648 55.244,4.648 L55.244,4.648 Z" id="Shape" sketch:type="MSShapeGroup"></path>
            <path d="M3.244,88.648 C2.732,88.648 2.22,88.452 1.828,88.064 C1.048,87.292 1.048,86.016 1.828,85.236 L31.2,55.86 C31.98,55.08 33.248,55.08 34.028,55.86 C34.808,56.64 34.808,57.908 34.028,58.688 L4.656,88.064 C4.264,88.452 3.752,88.648 3.244,88.648 L3.244,88.648 Z" id="Shape" sketch:type="MSShapeGroup"></path>
            <path d="M21.948,89.352 C21.436,89.352 20.924,89.156 20.532,88.772 L1.34,69.576 C0.56,68.796 0.56,67.52 1.34,66.748 C2.12,65.968 3.388,65.968 4.168,66.748 L23.36,85.944 C24.14,86.724 24.14,87.992 23.36,88.772 C22.976,89.156 22.464,89.352 21.948,89.352 L21.948,89.352 Z" id="Shape" sketch:type="MSShapeGroup"></path>
        </g>
    </g>
</svg>