<?xml version="1.0" encoding="UTF-8" standalone="no"?>
<svg width="494px" height="262px" viewBox="0 0 494 262" version="1.1" xmlns="http://www.w3.org/2000/svg" xmlns:xlink="http://www.w3.org/1999/xlink" xmlns:sketch="http://www.bohemiancoding.com/sketch/ns">
    <!-- Generator: Sketch 3.2 (9961) - http://www.bohemiancoding.com/sketch -->
    <title>Shape + Shape + Shape</title>
    <desc>Created with Sketch.</desc>
    <defs></defs>
    <g id="Page-1" stroke="none" stroke-width="1" fill="none" fill-rule="evenodd" sketch:type="MSPage">
        <g id="Shape-+-Shape-+-Shape" sketch:type="MSLayerGroup" transform="translate(3.000000, 3.000000)" stroke="#000000" stroke-width="6">
            <path d="M456.067335,152.555444 C493.004881,162.741517 486.672731,187.921903 486.562469,204.802526 L394.415497,204.802526 C391.099782,194.586864 382.916815,185.044356 363.369056,179.681318 L357.186546,177.942955 C331.322387,170.87854 317.476714,167.061536 313.853841,159.405338 C312.971751,156.646147 313.239528,153.583668 321.86354,150.639545 C349.578514,143.064717 363.621082,139.099768 366.936798,129.350135 L368.685228,129.350135 C368.212679,128.958079 367.755882,128.57342 367.322713,128.10739 C353.62668,115.702129 343.167605,91.4981859 343.167605,71.9545371 C343.167605,44.3182496 365.69242,26.1578947 387.004361,26.1578947 C408.308426,26.1578947 429.746379,45.7755164 429.746379,73.4487904 C429.746379,92.9924391 418.105933,116.434461 403.811338,128.425474 C406.756891,139.706346 422.823543,143.397595 456.067335,152.555444 L456.067335,152.555444 Z" id="Shape" sketch:type="MSShapeGroup"></path>
            <path d="M388.241056,255.5247 L101.979006,255.5247 C101.805738,252.832085 101.624594,250.139471 101.278059,246.966032 C100.395968,236.343519 99.5138775,225.410319 102.679953,215.416576 C106.546975,203.691866 116.572881,193.387437 139.775016,187.040559 L148.745563,184.347945 C189.534381,173.407348 211.342497,167.230608 218.548863,152.798489 L220.840724,149.166418 L220.667456,144.565302 C220.139777,144.247218 219.793241,143.936532 219.084418,143.137624 C216.61929,140.763093 214.162037,138.381165 211.870177,135.540604 C196.047675,116.662712 184.793143,87.5025817 184.793143,63.4169949 C184.793143,32.6516523 209.066388,0 245.279361,0 C273.592896,0 304.017148,26.3195693 304.017148,65.6287856 C304.017148,90.6834177 290.12422,121.737255 271.135644,139.971583 C269.899141,141.251314 268.497247,142.346114 267.268621,143.463105 L264.984636,145.371607 L265.685583,148.234359 C270.607964,166.291152 292.762617,172.475289 337.245189,184.362739 L346.389004,187.055354 C369.425747,193.402232 380.325867,203.869402 385.07498,215.431371 L385.248248,215.431371 C389.650826,226.682654 389.115271,238.902982 388.587592,250.309608 C388.414324,252.033178 388.414324,253.934282 388.241056,255.5247 L388.241056,255.5247 Z" id="Shape" sketch:type="MSShapeGroup"></path>
            <path d="M30.9710796,150.555444 C-5.99797049,160.741517 0.38143525,185.921903 0.475944964,202.802526 L92.5914135,202.802526 C95.9307568,192.586864 104.08222,183.044356 123.669358,177.681318 L129.828241,175.942955 C155.716027,168.87854 169.569576,165.061536 173.168821,157.405338 C172.184345,154.36505 173.972154,149.808318 165.143371,148.639545 C137.444149,141.064717 123.401581,137.099768 120.093741,127.350135 L118.361062,127.350135 C118.825735,126.958079 119.298284,126.57342 119.715702,126.10739 C133.411734,113.702129 143.878685,89.4981859 143.878685,69.9545371 C143.878685,42.3182496 121.361746,24.1578947 100.041929,24.1578947 C78.7142371,24.1578947 57.2999109,43.7755164 57.2999109,71.4487904 C57.2999109,90.9924391 68.8931026,114.434461 83.1876969,126.425474 C80.2578958,137.706346 64.1676169,141.397595 30.9710796,150.555444 L30.9710796,150.555444 Z" id="Shape" sketch:type="MSShapeGroup"></path>
        </g>
    </g>
</svg>