<?xml version="1.0" encoding="UTF-8" standalone="no"?>
<svg width="188px" height="259px" viewBox="0 0 188 259" version="1.1" xmlns="http://www.w3.org/2000/svg" xmlns:xlink="http://www.w3.org/1999/xlink" xmlns:sketch="http://www.bohemiancoding.com/sketch/ns">
    <!-- Generator: Sketch 3.2 (9961) - http://www.bohemiancoding.com/sketch -->
    <title>Fill 144</title>
    <desc>Created with Sketch.</desc>
    <defs></defs>
    <g id="Page-1" stroke="none" stroke-width="1" fill="none" fill-rule="evenodd" sketch:type="MSPage">
        <path d="M94,234.71875 C100.768,234.71875 106.26087,229.27975 106.26087,222.578125 C106.26087,215.8765 100.768,210.4375 94,210.4375 C87.232,210.4375 81.7391304,215.8765 81.7391304,222.578125 C81.7391304,229.27975 87.232,234.71875 94,234.71875 L94,234.71875 Z M171.652174,40.46875 L16.3478261,40.46875 L16.3478261,32.375 C16.3478261,23.4395 23.6716522,16.1875 32.6956522,16.1875 L155.304348,16.1875 C164.328348,16.1875 171.652174,23.4395 171.652174,32.375 L171.652174,40.46875 L171.652174,40.46875 Z M16.3478261,56.65625 L171.652174,56.65625 L171.652174,186.15625 L16.3478261,186.15625 L16.3478261,56.65625 Z M171.652174,226.625 C171.652174,235.5605 164.328348,242.8125 155.304348,242.8125 L32.6956522,242.8125 C23.6716522,242.8125 16.3478261,235.5605 16.3478261,226.625 L16.3478261,202.34375 L171.652174,202.34375 L171.652174,226.625 L171.652174,226.625 Z M155.304348,0 L32.6956522,0 C14.6394783,0 0,14.4959062 0,32.375 L0,226.625 C0,244.504094 14.6394783,259 32.6956522,259 L155.304348,259 C173.360522,259 188,244.504094 188,226.625 L188,32.375 C188,14.4959062 173.360522,0 155.304348,0 L155.304348,0 Z" id="Fill-144" fill="#000000" sketch:type="MSShapeGroup"></path>
    </g>
</svg>