<?xml version="1.0" encoding="UTF-8" standalone="no"?>
<svg width="383px" height="329px" viewBox="0 0 383 329" version="1.1" xmlns="http://www.w3.org/2000/svg" xmlns:xlink="http://www.w3.org/1999/xlink" xmlns:sketch="http://www.bohemiancoding.com/sketch/ns">
    <!-- Generator: Sketch 3.2 (9961) - http://www.bohemiancoding.com/sketch -->
    <title>Group 6 +  13</title>
    <desc>Created with Sketch.</desc>
    <defs></defs>
    <g id="Page-1" stroke="none" stroke-width="1" fill="none" fill-rule="evenodd" sketch:type="MSPage">
        <g id="Group-6-+--13" sketch:type="MSLayerGroup" fill="#000000">
            <g id="Group-6" sketch:type="MSShapeGroup">
                <path d="M109.420638,328.565333 L0.0478723404,328.565333 L0.0478723404,128.207286 L109.420638,128.207286 L109.420638,328.565333 L109.420638,328.565333 Z" id="Shape"></path>
                <path d="M318.225798,328.565333 L217.957872,328.565333 C201.091596,328.565333 196.000585,318.755524 192.957447,312.89019 C190.467234,308.095952 189.95117,307.096 184.536596,307.096 L119.266809,307.096 L119.266809,149.285333 L126.802979,147.902 C154.522979,142.803429 199.674468,115.907476 208.820266,80.6048095 C210.917287,72.5182381 212.645691,65.0087143 214.316755,57.7442381 C221.680904,25.7694762 227.496862,0.513761905 252.964202,0.513761905 C269.6175,0.513761905 285.042074,3.2962381 290.874415,36.9033333 C294.09367,55.4637143 294.130532,93.4460952 294.089574,117.480524 L336.337181,117.480524 C363.520638,117.480524 382.508511,136.001381 382.508511,162.517905 L382.508511,265.524857 C382.524894,266.552476 382.647766,293.515619 363.733617,311.989048 C352.470319,322.984571 337.160426,328.565333 318.225798,328.565333 L318.225798,328.565333 Z" id="Shape"></path>
            </g>
        </g>
    </g>
</svg>